<?xml version="1.0" encoding="UTF-8" standalone="no"?>
<svg xmlns="http://www.w3.org/2000/svg" width="128" height="128" viewBox="0 0 33.866666 33.866668" version="1.1" id="svg8"><g id="layer10" style="" transform="translate(0,0)">
      
      
    <path style="fill:#5dd05d;fill-opacity:1;stroke:none;stroke-width:0.26458335px;stroke-linecap:butt;stroke-linejoin:miter;stroke-opacity:1" d="m 24.634532,-0.00222873 1.686719,4.10327103 0.23151,7.0114577 -0.23151,3.439584 -0.595313,3.604948 -3.075781,4.630208 -3.770313,2.745052 -4.861719,0.628386 L 10.512396,25.631511 7.0728152,25.466146 3.798598,24.738542 -0.10504027,24.870831 V 9.3017583 L 4.3277637,8.8635423 7.2381792,9.2604173 9.487137,9.0619793 10.810052,8.0697923 11.00849,6.6145833 10.148594,4.2333333 9.9501567,2.1166673 9.354845,0.33072927 9.0241163,-0.06614573" id="path1107"/><path id="path900" d="m 24.634532,-0.00222873 1.686719,4.10327103 0.23151,7.0114577 -0.23151,3.439584 -0.595313,3.604948 -3.075781,4.630208 -3.770313,2.745052 -4.861719,0.628386 -3.505729,-0.529167 -3.4395808,-0.165365 -3.2742172,-0.727604 -3.90363827,0.132289 m 0,-15.5690727 4.43280397,-0.438216 2.9104155,0.396875 2.2489578,-0.198438 1.322915,-0.992187 0.198438,-1.455209 -0.859896,-2.38125 L 9.9501567,2.1166673 9.354845,0.33072927 9.0241163,-0.06614573" style="fill:none;fill-opacity:1;stroke:#000000;stroke-width:0.26458335px;stroke-linecap:butt;stroke-linejoin:miter;stroke-opacity:1"/></g></svg>