<?xml version="1.0" encoding="UTF-8" standalone="no"?>
<svg xmlns="http://www.w3.org/2000/svg" width="128" height="128" viewBox="0 0 33.866666 33.866668" version="1.1" id="svg8"><g id="layer7" style="" transform="translate(0,0)">
        
        
        
        
        
        
      <path style="fill:#ff0000;fill-opacity:1;stroke:none;stroke-width:0.26458332px;stroke-linecap:butt;stroke-linejoin:miter;stroke-opacity:1" d="m 17.983804,5.9543375 c 0,0 -0.701188,-1.7010283 -0.627238,-2.5844168 0.06074,-0.725484 0.286424,-0.9285639 0.299574,-1.6564662 l 0.01894,-1.04842812 c 0,0 -0.2484,0.56028322 -0.679262,1.13961252 -0.471679,0.6342069 -0.275612,0.3962084 -0.537244,1.1420254 -0.04394,0.1252681 -0.09354,0.3871119 -0.09354,0.3871119 0,0 -0.270646,-0.3318222 -0.439941,-0.4595233 C 15.657418,2.6723326 15.687107,2.5134719 15.362805,2.428349 14.859487,2.2962431 14.480508,2.033906 14.480508,2.033906 c 0,0 0.290275,0.9986666 0.859822,1.4478284 0.360036,0.283947 0.712751,0.5978651 0.963634,0.9816781 0.297002,0.4544391 0.606787,1.511398 0.606787,1.511398 l 0.226398,0.3259653 z" id="path916-1"/><path style="fill:#5dd05d;fill-opacity:1;fill-rule:nonzero;stroke:#000000;stroke-width:0.26458332px;stroke-linecap:butt;stroke-linejoin:miter;stroke-opacity:1" d="M 33.867704,8.995829 28.230444,8.4519523 24.46379,6.1902665 c 0,0 -4.738091,-3.9814775 -6.88961,-3.2331175 -2.15152,0.74835 -7.371644,4.8471025 -8.0745623,8.754182 -0.3046194,1.693187 0.8859473,3.429603 1.9575463,4.775468 1.411207,1.772391 3.52003,2.918347 5.55155,3.921243 1.50876,0.744826 3.251865,0.889852 4.819077,1.502202 0.908559,0.354998 1.848915,0.688919 2.644123,1.253852 0.578693,0.411116 0.829506,1.26958 1.494998,1.516608 2.013747,0.747495 1.484416,0.511404 2.247247,0.600581 1.034716,0.120961 2.306634,0.1189 3.123197,-0.114296 0.327401,-0.0935 2.530348,-0.29621 2.530348,-0.29621" id="path839-8-0"/><path style="fill:#000000;fill-opacity:1;fill-rule:nonzero;stroke:none;stroke-width:1;stroke-miterlimit:4;stroke-dasharray:none;stroke-opacity:0" id="path849-1-7" d="m 20.411448,5.040133 a 0.49110797,0.49110797 0 0 1 -0.490941,0.4911079 0.49110797,0.49110797 0 0 1 -0.491275,-0.4907736 0.49110797,0.49110797 0 0 1 0.490606,-0.491442 0.49110797,0.49110797 0 0 1 0.491609,0.4904392"/><path d="m 16.715305,5.574214 a 0.49110797,0.49110797 0 0 1 -0.49094,0.4911079 0.49110797,0.49110797 0 0 1 -0.491275,-0.4907736 0.49110797,0.49110797 0 0 1 0.490606,-0.491442 0.49110797,0.49110797 0 0 1 0.491609,0.4904391" id="path851-7-6" style="fill:#000000;fill-opacity:1;fill-rule:nonzero;stroke:none;stroke-width:1;stroke-miterlimit:4;stroke-dasharray:none;stroke-opacity:0"/><g id="g972" transform="translate(8.5328124,-2.3151041)">
          
          
        <path d="M 16.650894,10.878154 A 1.8241144,1.9878173 0 0 1 14.8274,12.865971 1.8241144,1.9878173 0 0 1 13.002665,10.879507 1.8241144,1.9878173 0 0 1 14.824917,8.8903375 1.8241144,1.9878173 0 0 1 16.650892,10.875448" id="path853-8-2" style="fill:#000000;fill-opacity:1;fill-rule:nonzero;stroke:none;stroke-width:1;stroke-miterlimit:4;stroke-dasharray:none;stroke-opacity:0"/><path d="m 15.341272,10.924907 a 0.30401909,0.3975634 0 0 1 -0.303916,0.397563 0.30401909,0.3975634 0 0 1 -0.304123,-0.397293 0.30401909,0.3975634 0 0 1 0.303709,-0.397833 0.30401909,0.3975634 0 0 1 0.304329,0.397022" id="path857-6-0" style="fill:#ffffff;fill-opacity:1;fill-rule:nonzero;stroke:none;stroke-width:1;stroke-miterlimit:4;stroke-dasharray:none;stroke-opacity:0"/></g><g id="g976" transform="translate(0,-11.773959)">
          
          
        <path d="m 16.884754,22.197001 a 2.0813613,2.0345893 0 0 1 -2.080653,2.034589 2.0813613,2.0345893 0 0 1 -2.082069,-2.033205 2.0813613,2.0345893 0 0 1 2.079235,-2.035973 2.0813613,2.0345893 0 0 1 2.083485,2.031819" id="path855-2-5" style="fill:#000000;fill-opacity:1;fill-rule:nonzero;stroke:none;stroke-width:1;stroke-miterlimit:4;stroke-dasharray:none;stroke-opacity:0"/><path d="m 15.341271,22.290537 a 0.32740518,0.44433561 0 0 1 -0.327294,0.444335 0.32740518,0.44433561 0 0 1 -0.327517,-0.444033 0.32740518,0.44433561 0 0 1 0.327071,-0.444637 0.32740518,0.44433561 0 0 1 0.327739,0.44373" id="path859-4-8" style="fill:#ffffff;fill-opacity:1;fill-rule:nonzero;stroke:none;stroke-width:1.30580556;stroke-miterlimit:4;stroke-dasharray:none;stroke-opacity:0"/></g></g></svg>