<?xml version="1.0" encoding="UTF-8" standalone="no"?>
<svg xmlns="http://www.w3.org/2000/svg" width="128" height="128" viewBox="0 0 33.866666 33.866668" version="1.1" id="svg8"><g id="layer4" style="" transform="translate(0,-263.13332)">
        
        
        
        
        
        
        
        
        
        
        
      <path style="fill:#5dd05d;fill-opacity:1;fill-rule:nonzero;stroke:#000000;stroke-width:0.26458332px;stroke-linecap:butt;stroke-linejoin:miter;stroke-opacity:1" d="m 33.867701,272.12915 -3.652883,-1.60221 -6.875507,-0.60804 c 0,0 -6.127154,-0.60804 -8.278673,0.14032 -2.15152,0.74835 -7.7641801,3.46114 -8.3722183,4.25627 -0.6080381,0.79512 -1.8708864,4.11595 -2.0112032,5.23848 -0.1403164,1.12253 -0.7951266,3.18051 -0.4677214,5.14494 0.327405,1.96443 1.0757599,3.83531 2.3386081,4.67721 1.2628486,0.8419 4.0691788,1.54348 5.7529768,1.6838 1.683798,0.14032 5.940065,-0.14032 7.249686,-0.46772 1.30962,-0.3274 5.144938,-1.44994 5.752976,-1.44994 0.608038,0 5.706205,-0.74835 6.033611,-0.8419 0.327403,-0.0935 2.530348,-0.29621 2.530348,-0.29621" id="path839"/><path style="fill:#f90303;fill-opacity:1;stroke:#000000;stroke-width:0.26458332px;stroke-linecap:butt;stroke-linejoin:miter;stroke-opacity:1" d="m 16.557347,271.18175 c 0,0 -4.582407,0.24208 -6.407787,1.1693 -1.2788956,0.64963 -3.0668419,1.56351 -3.8587035,2.75956 -1.2712863,1.92019 -1.9081623,4.87732 -1.9644311,7.17953 -0.043183,1.7668 0.377304,4.68162 1.2862346,6.19731 0.4383718,0.73101 1.3484417,1.08021 2.1047474,1.47333 1.0604123,0.55119 2.8157326,0.22989 3.9990206,0.39756 1.760035,0.24938 5.636046,-0.28058 5.636046,-0.28058 z" id="path861"/><path style="fill:#5dd05d;fill-opacity:1;stroke:#000000;stroke-width:0.26458332px;stroke-linecap:butt;stroke-linejoin:miter;stroke-opacity:1" d="m 17.726651,269.68504 c -5.893293,2.38538 -5.764294,3.78475 -6.010224,4.11595 -0.340649,0.45877 -1.447646,2.05988 -1.660412,2.50231 -0.3049926,0.63421 -1.4031635,2.17491 -1.2160754,3.57807 0.1870894,1.40317 -0.2194863,3.73402 0.5144941,5.3788 0.5440641,1.21919 1.6728723,2.10938 2.7127853,2.94665 0.914343,0.73617 1.930895,1.39338 3.040191,1.77734 1.398092,0.48393 4.396584,0.60804 4.396584,0.60804" id="path847"/><path style="fill:#000000;fill-opacity:1;fill-rule:nonzero;stroke:none;stroke-width:1;stroke-miterlimit:4;stroke-dasharray:none;stroke-opacity:0" id="path849" d="m 12.651871,277.00488 a 0.49110797,0.49110797 0 0 1 -0.490941,0.49111 0.49110797,0.49110797 0 0 1 -0.491275,-0.49077 0.49110797,0.49110797 0 0 1 0.490606,-0.49144 0.49110797,0.49110797 0 0 1 0.491609,0.49043"/><path d="m 12.979276,284.06747 a 0.49110797,0.49110797 0 0 1 -0.490941,0.49111 0.49110797,0.49110797 0 0 1 -0.491275,-0.49077 0.49110797,0.49110797 0 0 1 0.490606,-0.49144 0.49110797,0.49110797 0 0 1 0.491609,0.49044" id="path851" style="fill:#000000;fill-opacity:1;fill-rule:nonzero;stroke:none;stroke-width:1;stroke-miterlimit:4;stroke-dasharray:none;stroke-opacity:0"/><path style="fill:#000000;fill-opacity:1;fill-rule:nonzero;stroke:none;stroke-width:1;stroke-miterlimit:4;stroke-dasharray:none;stroke-opacity:0" id="path853" d="m 20.018489,273.82437 a 1.8241144,1.987817 0 0 1 -1.823494,1.98782 1.8241144,1.987817 0 0 1 -1.824735,-1.98647 1.8241144,1.987817 0 0 1 1.822252,-1.98916 1.8241144,1.987817 0 0 1 1.825975,1.98511"/><path style="fill:#000000;fill-opacity:1;fill-rule:nonzero;stroke:none;stroke-width:1;stroke-miterlimit:4;stroke-dasharray:none;stroke-opacity:0" id="path855" d="m 20.158805,284.86261 a 2.0813613,2.0345893 0 0 1 -2.080653,2.03459 2.0813613,2.0345893 0 0 1 -2.082069,-2.03321 2.0813613,2.0345893 0 0 1 2.079236,-2.03597 2.0813613,2.0345893 0 0 1 2.083484,2.03182"/><path style="fill:#ffffff;fill-opacity:1;fill-rule:nonzero;stroke:none;stroke-width:1;stroke-miterlimit:4;stroke-dasharray:none;stroke-opacity:0" id="path857" d="m 18.475007,273.73083 a 0.30401909,0.3975634 0 0 1 -0.303915,0.39757 0.30401909,0.3975634 0 0 1 -0.304123,-0.39729 0.30401909,0.3975634 0 0 1 0.303709,-0.39784 0.30401909,0.3975634 0 0 1 0.304329,0.39702"/><path style="fill:#ffffff;fill-opacity:1;fill-rule:nonzero;stroke:none;stroke-width:1;stroke-miterlimit:4;stroke-dasharray:none;stroke-opacity:0" id="path859" d="m 18.287917,284.79245 a 0.30401909,0.28063297 0 0 1 -0.303915,0.28063 0.30401909,0.28063297 0 0 1 -0.304123,-0.28044 0.30401909,0.28063297 0 0 1 0.303709,-0.28082 0.30401909,0.28063297 0 0 1 0.304329,0.28025"/><path style="fill:#ffffff;fill-opacity:1;stroke:none;stroke-width:0.2192263px;stroke-linecap:butt;stroke-linejoin:miter;stroke-opacity:1" d="m 7.8826237,277.48072 -2.4939028,-1.14953 2.614407,0.29752 z" id="path863"/><path id="path865" d="m 7.0181161,285.45075 -2.7675094,0.0324 2.5450075,-0.82842 z" style="fill:#ffffff;fill-opacity:1;stroke:none;stroke-width:0.21663222px;stroke-linecap:butt;stroke-linejoin:miter;stroke-opacity:1"/></g></svg>