<?xml version="1.0" encoding="UTF-8" standalone="no"?>
<svg xmlns="http://www.w3.org/2000/svg" width="128" height="128" viewBox="0 0 33.866666 33.866668" version="1.1" id="svg8"><g id="layer6" style="" transform="translate(0,-263.13332)">
        
        
        
        
        
        
        
        
      <path style="fill:#ff0000;fill-opacity:1;stroke:none;stroke-width:0.26458332px;stroke-linecap:butt;stroke-linejoin:miter;stroke-opacity:1" d="m 6.713802,279.10754 c 0,0 -1.7971004,-0.39445 -2.4804687,-0.95912 -0.5612144,-0.46374 -0.7717016,-1.23472 -1.157552,-1.85208 -0.385851,-0.61736 -1.1575521,-1.85208 -1.1575521,-1.85208 0,0 0.034551,1.46537 0.2645834,2.14973 0.2518221,0.74919 0.7273119,1.41019 1.1906249,2.05053 0.077818,0.10755 0.2645833,0.29766 0.2645833,0.29766 0,0 -0.4269259,0.033 -0.6283854,0.0992 -0.3185376,0.10466 -0.6380557,0.24522 -0.8929687,0.46302 -0.3956216,0.33803 -0.9260417,1.25678 -0.9260417,1.25678 0,0 1.2905653,-0.68142 1.984375,-0.89298 0.4385982,-0.13373 0.8976364,-0.24435 1.3559896,-0.23146 0.5426703,0.0153 1.5875,0.36381 1.5875,0.36381 h 0.3968749 z" id="path916"/><path style="fill:#5dd05d;fill-opacity:1;fill-rule:nonzero;stroke:#000000;stroke-width:0.26458332px;stroke-linecap:butt;stroke-linejoin:miter;stroke-opacity:1" d="m 33.867703,272.12915 -3.652885,-1.60221 -6.875507,-0.60804 c 0,0 -6.127154,-0.60804 -8.278673,0.14032 -2.15152,0.74835 -6.5404821,3.85801 -7.1485203,4.65314 -0.6080382,0.79512 -1.8708866,3.78523 -2.0112033,4.90776 -0.1403164,1.12253 -0.7951267,2.949 -0.4677215,4.91343 0.3274051,1.96443 1.3072704,3.23999 2.5701186,4.08189 1.2628487,0.8419 3.1431375,1.77499 4.8269355,1.91531 1.683798,0.14032 5.410898,0.38885 6.720519,0.0614 1.30962,-0.3274 5.144939,-1.44994 5.752976,-1.44994 0.608038,0 5.706207,-0.74835 6.033613,-0.8419 0.3274,-0.0935 2.530348,-0.29621 2.530348,-0.29621" id="path839-8"/><path style="fill:#000000;fill-opacity:1;fill-rule:nonzero;stroke:none;stroke-width:1;stroke-miterlimit:4;stroke-dasharray:none;stroke-opacity:0" id="path849-1" d="m 8.7697811,277.56616 a 0.49110797,0.49110797 0 0 1 -0.4909408,0.49111 0.49110797,0.49110797 0 0 1 -0.491275,-0.49077 0.49110797,0.49110797 0 0 1 0.4906065,-0.49145 0.49110797,0.49110797 0 0 1 0.4916089,0.49044"/><path d="m 8.9100972,282.66431 a 0.49110797,0.49110797 0 0 1 -0.4909409,0.4911 0.49110797,0.49110797 0 0 1 -0.491275,-0.49077 0.49110797,0.49110797 0 0 1 0.4906065,-0.49144 0.49110797,0.49110797 0 0 1 0.4916089,0.49044" id="path851-7" style="fill:#000000;fill-opacity:1;fill-rule:nonzero;stroke:none;stroke-width:1;stroke-miterlimit:4;stroke-dasharray:none;stroke-opacity:0"/><path style="fill:#000000;fill-opacity:1;fill-rule:nonzero;stroke:none;stroke-width:1;stroke-miterlimit:4;stroke-dasharray:none;stroke-opacity:0" id="path853-8" d="m 16.650893,274.01147 a 1.8241144,1.9878172 0 0 1 -1.823494,1.98782 1.8241144,1.9878172 0 0 1 -1.824735,-1.98646 1.8241144,1.9878172 0 0 1 1.822252,-1.98917 1.8241144,1.9878172 0 0 1 1.825975,1.98511"/><path style="fill:#000000;fill-opacity:1;fill-rule:nonzero;stroke:none;stroke-width:1;stroke-miterlimit:4;stroke-dasharray:none;stroke-opacity:0" id="path855-2" d="m 16.884754,285.33032 a 2.0813613,2.0345893 0 0 1 -2.080653,2.03459 2.0813613,2.0345893 0 0 1 -2.082069,-2.0332 2.0813613,2.0345893 0 0 1 2.079235,-2.03598 2.0813613,2.0345893 0 0 1 2.083485,2.03182"/><path style="fill:#ffffff;fill-opacity:1;fill-rule:nonzero;stroke:none;stroke-width:1;stroke-miterlimit:4;stroke-dasharray:none;stroke-opacity:0" id="path857-6" d="m 15.341272,274.05823 a 0.30401909,0.3975634 0 0 1 -0.303916,0.39756 0.30401909,0.3975634 0 0 1 -0.304123,-0.39729 0.30401909,0.3975634 0 0 1 0.303709,-0.39784 0.30401909,0.3975634 0 0 1 0.304329,0.39703"/><path style="fill:#ffffff;fill-opacity:1;fill-rule:nonzero;stroke:none;stroke-width:1.30580556;stroke-miterlimit:4;stroke-dasharray:none;stroke-opacity:0" id="path859-4" d="m 15.341271,285.42386 a 0.32740518,0.44433558 0 0 1 -0.327294,0.44433 0.32740518,0.44433558 0 0 1 -0.327517,-0.44403 0.32740518,0.44433558 0 0 1 0.327071,-0.44464 0.32740518,0.44433558 0 0 1 0.327739,0.44373"/></g></svg>