<?xml version="1.0" encoding="UTF-8" standalone="no"?>
<svg xmlns="http://www.w3.org/2000/svg" width="128" height="128" viewBox="0 0 33.866666 33.866668" version="1.1" id="svg8"><g id="layer14" style="" transform="translate(0,0)">
        
        
        
        
        
        
        
        
        
        
        
        
        
        
      <path style="fill:#5dd05d;fill-opacity:1;fill-rule:nonzero;stroke:none;stroke-width:1.0271275;stroke-miterlimit:4;stroke-dasharray:none;stroke-opacity:0" id="path1116" d="M 21.879649,5.423141 A 4.852139,2.6182334 0 0 1 17.029161,8.0413743 4.852139,2.6182334 0 0 1 12.175372,5.4249231 4.852139,2.6182334 0 0 1 17.022556,2.8049089 4.852139,2.6182334 0 0 1 21.879644,5.4195768" transform="rotate(36.191676)"/><path style="fill:#000000;fill-opacity:1;fill-rule:nonzero;stroke:none;stroke-width:1.0271275;stroke-miterlimit:4;stroke-dasharray:none;stroke-opacity:0" id="path1120" d="M 10.667549,12.226237 A 0.79065549,0.79065549 0 0 1 9.8771631,13.016893 0.79065549,0.79065549 0 0 1 9.0862387,12.226775 0.79065549,0.79065549 0 0 1 9.8760868,11.435582 0.79065549,0.79065549 0 0 1 10.667549,12.225161" transform="rotate(2.2738686)"/><path style="fill:#a0fb0e;fill-opacity:1;stroke:none;stroke-width:0.27176082px;stroke-linecap:butt;stroke-linejoin:miter;stroke-opacity:1" d="m 6.6826535,12.475162 -1.6798857,0.942952 1.5620475,-0.09423 -1.014601,0.837152 1.4035279,-0.232743 z" id="path1122"/><path style="fill:#1c2e01;fill-opacity:1;stroke:none;stroke-width:0.27176082px;stroke-linecap:butt;stroke-linejoin:miter;stroke-opacity:1" d="M 10.231811,11.279431 C 10.456894,5.6108915 1.6836887,2.2368091 1.6836887,2.2368091 L 1.2958966,2.4516239 c 0,0 8.9750004,3.4890612 8.6034385,8.6596121 -0.0089,0.12388 0.3324759,0.168194 0.3324759,0.168195 z" id="path1124"/><path style="fill:#1c2e01;fill-opacity:1;fill-rule:nonzero;stroke:none;stroke-width:1.0271275;stroke-miterlimit:4;stroke-dasharray:none;stroke-opacity:0" id="path1126" d="M 2.1443176,2.1956637 A 0.46839952,0.46839952 0 0 1 1.6760775,2.6640632 0.46839952,0.46839952 0 0 1 1.2075187,2.1959825 0.46839952,0.46839952 0 0 1 1.6754399,1.7272644 0.46839952,0.46839952 0 0 1 2.1443172,2.1950261" transform="rotate(2.2738686)"/><path id="path1128" d="M 10.654309,11.536602 C 10.879392,5.868062 3.2830413,1.9156846 3.2830413,1.9156846 L 2.8952492,2.1304992 c 0,0 7.7981468,4.0673564 7.4265848,9.2379068 -0.0089,0.12388 0.332475,0.168195 0.332475,0.168196 z" style="fill:#1c2e01;fill-opacity:1;stroke:none;stroke-width:0.27176082px;stroke-linecap:butt;stroke-linejoin:miter;stroke-opacity:1"/><path d="M 3.7296696,1.8113358 A 0.46839952,0.46839952 0 0 1 3.2614295,2.2797353 0.46839952,0.46839952 0 0 1 2.7928706,1.8116546 0.46839952,0.46839952 0 0 1 3.2607918,1.3429365 0.46839952,0.46839952 0 0 1 3.7296691,1.8106982" id="path1130" style="fill:#1c2e01;fill-opacity:1;fill-rule:nonzero;stroke:none;stroke-width:1.0271275;stroke-miterlimit:4;stroke-dasharray:none;stroke-opacity:0" transform="rotate(2.2738686)"/><path style="fill:none;stroke:#1c2e01;stroke-width:0.27176082px;stroke-linecap:butt;stroke-linejoin:miter;stroke-opacity:1" d="m 16.455608,18.007655 1.853914,-3.099588 -0.612756,5.745129" id="path1142"/><path style="fill:none;stroke:#1c2e01;stroke-width:0.27176082px;stroke-linecap:butt;stroke-linejoin:miter;stroke-opacity:1" d="m 18.815737,19.111026 3.392274,-1.884612 -0.660407,6.945208" id="path1140"/><path id="path1144" d="m 19.180701,19.606306 7.981865,-0.01962 3.74124,6.278607 0.201888,0.969596 -1.213772,-0.913618 -3.370204,-4.72535 -7.189036,-0.57393 z" style="fill:#1c2e01;fill-opacity:1;stroke:none;stroke-width:0.27176082px;stroke-linecap:butt;stroke-linejoin:miter;stroke-opacity:1"/><path style="fill:#3f7e03;fill-opacity:1;fill-rule:nonzero;stroke:none;stroke-width:1.0271275;stroke-miterlimit:4;stroke-dasharray:none;stroke-opacity:0" id="path1132" d="m 32.212924,9.1512918 a 6.5460057,2.8542461 0 0 1 -6.543778,2.8542462 6.5460057,2.8542461 0 0 1 -6.548232,-2.8523034 6.5460057,2.8542461 0 0 1 6.53932,-2.8561874 6.5460057,2.8542461 0 0 1 6.552683,2.8503591" transform="rotate(28.423443)"/><path style="fill:none;stroke:#1c2e01;stroke-width:0.27176082px;stroke-linecap:butt;stroke-linejoin:miter;stroke-opacity:1" d="m 14.712597,19.525047 -0.06205,-2.069853 -5.0507139,3.693834" id="path1134"/><path style="fill:none;stroke:#1c2e01;stroke-width:0.27176082px;stroke-linecap:butt;stroke-linejoin:miter;stroke-opacity:1" d="m 17.094045,21.302368 0.341038,-2.534637 -4.680031,4.045107" id="path1136"/><path style="fill:#1c2e01;fill-opacity:1;stroke:none;stroke-width:0.27176082px;stroke-linecap:butt;stroke-linejoin:miter;stroke-opacity:1" d="m 18.119616,22.112351 7.981866,-0.01961 1.498533,9.482956 -0.143664,1.196267 -0.868218,-1.140289 -1.1275,-7.9297 -7.189035,-0.57393 z" id="path1138"/></g></svg>