<?xml version="1.0" encoding="UTF-8" standalone="no"?>
<svg xmlns="http://www.w3.org/2000/svg" width="128" height="128" viewBox="0 0 33.866666 33.866668" version="1.1" id="svg8"><g id="layer17" transform="translate(0,0)">
        
        
        
        
      <path style="fill:url(#linearGradient949);stroke:#000000;stroke-width:0.26458335px;stroke-linecap:butt;stroke-linejoin:miter;stroke-opacity:1;fill-opacity:1" d="m 4.6632814,25.697657 0.9591146,-0.03307 0.6614583,1.157552 0.5953125,-0.992187 1.5875001,-0.09922 0.2976562,0.926042 0.7276042,-0.959115 1.6205727,-0.03307 0.529167,0.694531 0.694531,-0.661458 h 1.223698 l 0.330729,0.892969 0.628386,-0.859896 1.785937,-0.165365 0.06615,1.058334 0.496094,-0.926042 2.050521,-0.03307 0.628385,0.826823 0.264583,-0.826823 1.686719,-0.06615 0.396875,0.892969 0.595313,-0.892969 h 1.124479 l 0.396875,0.760677 0.595312,-0.959114 0.859896,0.959114 0.429948,-0.859896 0.694532,0.892969 0.595312,-0.926042 0.496094,-0.03307 0.09922,-1.422136 -0.463021,-0.09922 0.09922,-12.832291 c 0,0 0.09607,-3.3552963 0.529166,-4.960938 0.119519,-0.4430982 0.56224,-1.2567709 0.56224,-1.2567709 l -11.44323,0.099219 c 0,0 0.506878,0.709296 0.694532,1.190625 0.493131,1.2648733 0.496093,4.0679689 0.496093,4.0679689 0,0 0.353289,4.06607 0,6.052344 -0.100777,0.566592 -0.217393,1.186569 -0.595318,1.620568 -0.369227,0.424011 -0.950727,0.628984 -1.488282,0.793749 C 15.56854,18.871365 14.904434,19.021151 14.2875,18.884636 13.597097,18.731863 13.066,18.171353 12.46849,17.79323 11.863904,17.410629 11.349821,16.86079 10.682552,16.602605 9.6530664,16.204268 8.5120533,16.088746 7.4083335,16.106511 c -0.7285947,0.01173 -1.4698915,0.134588 -2.1497396,0.396875 -0.9190906,0.354587 -1.934688,0.757315 -2.5135417,1.554427 -0.5467557,0.752911 -0.5504219,1.788135 -0.6614584,2.711979 -0.1105053,0.919425 0,2.778125 0,2.778125 l 1.4221355,2.050521 z" id="path920"/><path id="path937" d="m 4.6632814,25.697657 0.9591146,-0.03307 0.6614583,1.157552 0.5953125,-0.992187 1.5875001,-0.09922 0.2976562,0.926042 0.7276042,-0.959115 1.6205727,-0.03307 0.529167,0.694531 0.694531,-0.661458 h 1.223698 l 0.330729,0.892969 0.628386,-0.859896 1.785937,-0.165365 0.06615,1.058334 0.496094,-0.926042 2.050521,-0.03307 0.628385,0.826823 0.264583,-0.826823 1.686719,-0.06615 0.396875,0.892969 0.595313,-0.892969 h 1.124479 l 0.396875,0.760677 0.595312,-0.959114 0.859896,0.959114 0.429948,-0.859896 0.694532,0.892969 0.595312,-0.926042 0.496094,-0.03307 0.09922,-1.422136 -0.463021,-0.09922 -24.7201474,0.267617 0.9076417,1.419097 z" style="fill:#000000;stroke:none;stroke-width:0.26458335px;stroke-linecap:butt;stroke-linejoin:miter;stroke-opacity:1;fill-opacity:1"/><path style="fill:none;stroke:#1335f9;stroke-width:0.26458335px;stroke-linecap:butt;stroke-linejoin:miter;stroke-opacity:1" d="m 22.076172,8.5824224 c 0,0 -0.593562,-1.198603 -1.171221,-1.438355 -0.57766,-0.239751 -2.747919,0.594996 -2.747919,0.594996 0,0 -0.979262,1.110232 -1.35599,1.719791 -0.311036,0.503267 -0.649613,1.0136996 -0.79375,1.5874996 -0.09404,0.374377 -0.350293,0.937611 -0.03307,1.157552 0.264134,0.183135 0.672998,-0.129456 0.892969,-0.363802 0.880678,-0.938232 1.245636,-2.9701366 1.480813,-4.2316426 0.106966,-0.573773 0.305124,-1.093096 0.305124,-1.093096 0,0 0.637087,-2.791963 1.785938,-3.241146 0.227279,-0.08886 0.521974,0.05895 0.694532,0.23151 0.172558,0.172558 0.287578,0.457027 0.23151,0.694532 -0.347456,1.471844 -3.208073,3.208073 -3.208073,3.208073 l 0.330728,3.8695296" id="path951"/><path style="fill:none;stroke:#1335f9;stroke-width:0.26458335px;stroke-linecap:butt;stroke-linejoin:miter;stroke-opacity:1" d="m 18.026401,7.2050528 3.289094,0.1536716 -2.679393,1.2547647 3.324315,0.6303916 -3.25132,1.1176293 3.218247,0.833673 -3.522266,0.975651 3.274219,0.56224 -2.987081,1.351977 3.714685,0.863908 -3.96875,1.190625 3.522266,2.596224 -3.836459,-1.223698 0.463021,3.042708 -1.554427,-2.033984 -2.083594,2.645833 -0.314192,-2.067057 -2.497006,1.604036 0.611849,-2.579687" id="path953"/></g></svg>